<svg xmlns="http://www.w3.org/2000/svg" width="187.707" height="134.627" viewBox="0 0 187.707 134.627">
  <g id="Group_1410" data-name="Group 1410" transform="translate(-523.5 -5583.215)">
    <path id="Path_1049" data-name="Path 1049" d="M622.657,174.306a33.534,33.534,0,1,1,67.068,0" transform="translate(-55.608 5475.135)" fill="none" stroke="#bebebe" stroke-linecap="square" stroke-miterlimit="10" stroke-width="3" stroke-dasharray="4 7"/>
    <rect id="Rectangle_157" data-name="Rectangle 157" width="7.874" height="7.874" rx="0.726" transform="translate(563.021 5649.113)" fill="none" stroke="#000117" stroke-miterlimit="10" stroke-width="3"/>
    <rect id="Rectangle_158" data-name="Rectangle 158" width="7.874" height="7.874" rx="0.726" transform="translate(630.271 5649.113)" fill="none" stroke="#000117" stroke-miterlimit="10" stroke-width="3"/>
    <rect id="Rectangle_159" data-name="Rectangle 159" width="7.874" height="7.874" rx="0.726" transform="translate(596.646 5611.753)" fill="#fff" stroke="#000117" stroke-miterlimit="10" stroke-width="3"/>
    <line id="Line_90" data-name="Line 90" x2="19.619" transform="translate(604.485 5615.831)" fill="none" stroke="#000117" stroke-miterlimit="10" stroke-width="3"/>
    <g id="Ellipse_12" data-name="Ellipse 12" transform="translate(623.818 5614.057)" fill="none" stroke="#000117" stroke-miterlimit="10" stroke-width="3">
      <circle cx="1.717" cy="1.717" r="1.717" stroke="none"/>
      <circle cx="1.717" cy="1.717" r="3.217" fill="none"/>
    </g>
    <line id="Line_91" data-name="Line 91" x1="19.595" transform="translate(576.983 5615.831)" fill="none" stroke="#000117" stroke-miterlimit="10" stroke-width="3"/>
    <g id="Ellipse_13" data-name="Ellipse 13" transform="translate(573.646 5614.057)" fill="none" stroke="#000117" stroke-miterlimit="10" stroke-width="3">
      <circle cx="1.717" cy="1.717" r="1.717" stroke="none"/>
      <circle cx="1.717" cy="1.717" r="3.217" fill="none"/>
    </g>
    <rect id="Rectangle_160" data-name="Rectangle 160" width="153.439" height="103.69" rx="13.452" transform="translate(525 5584.715)" fill="none" stroke="#000117" stroke-miterlimit="10" stroke-width="3"/>
    <path id="Path_1050" data-name="Path 1050" d="M600.217,121.753H721.826V201.1H600.217" transform="translate(-55.608 5475.135)" fill="none" stroke="#000117" stroke-miterlimit="10" stroke-width="3"/>
    <line id="Line_92" data-name="Line 92" y2="104.017" transform="translate(544.484 5584.552)" fill="none" stroke="#000117" stroke-miterlimit="10" stroke-width="3"/>
    <circle id="Ellipse_14" data-name="Ellipse 14" cx="5.171" cy="5.171" r="5.171" transform="translate(529.649 5631.39)" fill="#fff" stroke="#000117" stroke-miterlimit="10" stroke-width="3"/>
    <path id="Path_1051" data-name="Path 1051" d="M586.316,223.92h0a3.922,3.922,0,0,0,3.965,3.878h81.346l5.1-4.016-5.1-3.739H590.281A3.922,3.922,0,0,0,586.316,223.92Z" transform="translate(-55.608 5475.135)" fill="none" stroke="#000117" stroke-miterlimit="10" stroke-width="3"/>
    <line id="Line_93" data-name="Line 93" y2="6.994" transform="translate(544.395 5695.568)" fill="none" stroke="#000117" stroke-miterlimit="10" stroke-width="3"/>
    <rect id="Rectangle_162" data-name="Rectangle 162" width="26.976" height="90.946" rx="4.364" transform="matrix(0.999, 0.055, -0.055, 0.999, 655.474, 5619.75)" fill="#fff" stroke="#000117" stroke-miterlimit="10" stroke-width="3"/>
    <rect id="Rectangle_163" data-name="Rectangle 163" width="28.513" height="96.127" rx="4.612" transform="translate(675.676 5714.293) rotate(-166.856)" fill="#fff" stroke="#000117" stroke-miterlimit="10" stroke-width="3"/>
    <rect id="Rectangle_164" data-name="Rectangle 164" width="29.028" height="97.864" rx="4.695" transform="translate(682.18 5614.146) rotate(21.067)" fill="#fff" stroke="#000117" stroke-miterlimit="10" stroke-width="3"/>
    <line id="Line_94" data-name="Line 94" x2="27.281" y2="10.509" transform="translate(679.145 5621.738)" fill="#fff" stroke="#000117" stroke-miterlimit="10" stroke-width="3"/>
    <line id="Line_95" data-name="Line 95" x2="27.281" y2="10.509" transform="translate(672.139 5639.926)" fill="#fff" stroke="#000117" stroke-miterlimit="10" stroke-width="3"/>
    <line id="Line_96" data-name="Line 96" x2="27.281" y2="10.509" transform="translate(670.019 5645.43)" fill="#fff" stroke="#000117" stroke-miterlimit="10" stroke-width="3"/>
    <line id="Line_97" data-name="Line 97" x2="27.281" y2="10.509" transform="translate(662.921 5663.856)" fill="#fff" stroke="#000117" stroke-miterlimit="10" stroke-width="3"/>
    <line id="Line_98" data-name="Line 98" x2="27.281" y2="10.509" transform="translate(660.801 5669.36)" fill="#fff" stroke="#000117" stroke-miterlimit="10" stroke-width="3"/>
    <line id="Line_99" data-name="Line 99" x2="27.281" y2="10.509" transform="translate(653.703 5687.787)" fill="#fff" stroke="#000117" stroke-miterlimit="10" stroke-width="3"/>
    <path id="Path_1052" data-name="Path 1052" d="M734.472,228.665" transform="translate(-55.608 5475.135)" fill="#fff" stroke="#000117" stroke-miterlimit="10" stroke-width="3"/>
    <path id="Path_1053" data-name="Path 1053" d="M707.191,218.156" transform="translate(-55.608 5475.135)" fill="#fff" stroke="#000117" stroke-miterlimit="10" stroke-width="3"/>
    <circle id="Ellipse_15" data-name="Ellipse 15" cx="2.821" cy="2.821" r="2.821" transform="translate(661.135 5699.014)" fill="#fff" stroke="#000117" stroke-miterlimit="10" stroke-width="3"/>
  </g>
</svg>
